<svg width="46" height="46" viewBox="0 0 46 46" fill="#0F3F71" xmlns="http://www.w3.org/2000/svg">
<path d="M10 0.5H36C41.2467 0.5 45.5 4.7533 45.5 10V36C45.5 41.2467 41.2467 45.5 36 45.5H10C4.7533 45.5 0.5 41.2467 0.5 36V10C0.5 4.7533 4.7533 0.5 10 0.5Z" stroke="url(#paint0_linear_572_8433)"/>
<path d="M19.2987 22.2793C19.23 22.353 19.1472 22.4121 19.0552 22.4531C18.9632 22.4941 18.8639 22.5162 18.7632 22.5179C18.6625 22.5197 18.5625 22.5012 18.4691 22.4635C18.3757 22.4257 18.2909 22.3696 18.2197 22.2984C18.1485 22.2272 18.0923 22.1423 18.0546 22.0489C18.0169 21.9555 17.9983 21.8555 18.0001 21.7548C18.0019 21.6541 18.0239 21.5548 18.0649 21.4628C18.1059 21.3708 18.165 21.288 18.2387 21.2193L22.2387 17.2193C22.3793 17.0789 22.57 17 22.7687 17C22.9675 17 23.1581 17.0789 23.2987 17.2193L27.2987 21.2193C27.3724 21.288 27.4315 21.3708 27.4725 21.4628C27.5135 21.5548 27.5355 21.6541 27.5373 21.7548C27.5391 21.8555 27.5206 21.9555 27.4828 22.0489C27.4451 22.1423 27.389 22.2272 27.3177 22.2984C27.2465 22.3696 27.1617 22.4257 27.0683 22.4635C26.9749 22.5012 26.8749 22.5197 26.7742 22.5179C26.6735 22.5162 26.5742 22.4941 26.4822 22.4531C26.3902 22.4121 26.3074 22.353 26.2387 22.2793L23.5187 19.5593V29.2493C23.5187 29.4483 23.4397 29.639 23.299 29.7797C23.1584 29.9203 22.9676 29.9993 22.7687 29.9993C22.5698 29.9993 22.379 29.9203 22.2384 29.7797C22.0977 29.639 22.0187 29.4483 22.0187 29.2493V19.5593L19.2987 22.2793Z" fill="white"/>
<defs>
<linearGradient id="paint0_linear_572_8433" x1="23" y1="0" x2="23" y2="46" gradientUnits="userSpaceOnUse">
<stop stop-color="#056AFD"/>
<stop offset="1" stop-color="#89FBC1"/>
</linearGradient>
</defs>
</svg>
